<svg id="SvgjsSvg1006" width="30" height="22" xmlns="http://www.w3.org/2000/svg" version="1.1" xmlns:xlink="http://www.w3.org/1999/xlink" xmlns:svgjs="http://svgjs.com/svgjs" viewBox="0 0 30 22"><title>icon</title><desc>Created with Avocode.</desc><defs id="SvgjsDefs1007"></defs><path id="SvgjsPath1008" d="M168.588 467.991L167.271 472.52C167.112 473.066 166.595 473.448 166.01299999999998 473.448H154.63299999999998L154.933 474.59299999999996C154.933 474.59299999999996 164.054 475.02299999999997 166.28799999999998 475.376C167.207 475.486 167.92399999999998 476.25899999999996 167.92399999999998 477.181C167.92399999999998 478.18399999999997 167.08899999999997 479 166.06199999999998 479C165.035 479 164.19899999999998 478.184 164.19899999999998 477.181C164.19899999999998 477.157 164.2 477.13399999999996 164.201 477.10999999999996H155.20999999999998C155.21099999999998 477.13399999999996 155.21099999999998 477.157 155.21099999999998 477.181C155.21099999999998 478.18399999999997 154.37599999999998 479 153.349 479C152.322 479 151.486 478.184 151.486 477.181C151.486 476.48199999999997 151.89399999999998 475.854 152.523 475.55L148.107 459.993L145.931 459.418C145.60600000000002 459.332 145.335 459.128 145.167 458.843C145 458.558 144.956 458.22700000000003 145.044 457.909C145.192 457.37399999999997 145.692 457 146.25900000000001 457C146.37 457 146.48100000000002 457.015 146.58800000000002 457.043L149.44700000000003 457.798C149.86900000000003 457.909 150.20600000000002 458.233 150.32800000000003 458.642L151.14500000000004 461.389L163.11200000000005 461.391C163.62500000000006 458.88500000000005 165.84200000000004 457 168.50000000000006 457C171.53700000000006 457 174.00000000000006 459.462 174.00000000000006 462.5C174.00000000000006 465.507 171.58400000000006 467.943 168.58800000000005 467.991ZM156.23 470.496L156.225 470.477L154.811 464.294C154.80100000000002 464.251 154.763 464.21999999999997 154.717 464.21999999999997H152.125C152.095 464.21999999999997 152.066 464.234 152.048 464.258C152.03 464.281 152.024 464.31199999999995 152.03300000000002 464.34L153.704 470.09099999999995C153.704 470.09099999999995 153.774 470.32499999999993 153.823 470.49499999999995C153.862 470.62899999999996 153.948 470.61599999999993 154.006 470.61699999999996H156.14C156.19199999999998 470.616 156.23399999999998 470.57399999999996 156.23399999999998 470.52299999999997C156.23399999999998 470.51399999999995 156.23299999999998 470.505 156.23 470.496ZM161.565 464.255C161.546 464.233 161.519 464.21999999999997 161.49 464.21999999999997H157.577C157.547 464.21999999999997 157.52 464.23299999999995 157.502 464.255C157.484 464.278 157.477 464.307 157.483 464.334L158.635 470.544C158.64499999999998 470.587 158.684 470.61699999999996 158.72899999999998 470.61699999999996H160.338C160.38299999999998 470.61699999999996 160.421 470.587 160.43099999999998 470.544L161.58299999999997 464.334C161.58999999999997 464.307 161.58299999999997 464.278 161.56499999999997 464.255ZM163.958 465.597L162.83599999999998 470.503C162.82899999999998 470.531 162.83599999999998 470.56 162.855 470.582C162.873 470.604 162.89999999999998 470.617 162.929 470.617H165.137C165.179 470.617 165.217 470.589 165.229 470.54900000000004L166.131 467.444C165.256 467.024 164.501 466.39300000000003 163.958 465.59700000000004ZM171 462H169V460H168V462H166V463H168V465H169V463H171Z " fill="#ffffff" fill-opacity="1" transform="matrix(1,0,0,1,-144,-457)"></path></svg>